<?xml version="1.0" encoding="utf-8"?>
<!-- Generator: Adobe Illustrator 24.3.0, SVG Export Plug-In . SVG Version: 6.00 Build 0)  -->
<svg version="1.1" id="Layer_1" xmlns="http://www.w3.org/2000/svg" xmlns:xlink="http://www.w3.org/1999/xlink" x="0px" y="0px"
	 viewBox="0 0 792 612" style="enable-background:new 0 0 792 612;" xml:space="preserve">
<style type="text/css">
	.st0{fill:#B976F6;}
	.st1{font-family:'ArialRoundedMTBold';}
	.st2{font-size:259.5864px;}
</style>
<g>
	<g>
		<path class="st0" d="M237.4,195.3h3.2V228h-3.2V195.3z M239.6,195.3h11.8v3h-11.8V195.3z M239.6,210.6h10.7v3h-10.7V210.6z"/>
		<path class="st0" d="M296.1,221.9c0,1,0.2,1.8,0.7,2.3c0.4,0.5,1.1,0.8,1.9,0.8h1.5v3h-1.8c-1.7,0-3.1-0.5-4-1.6
			c-1-1.1-1.4-2.6-1.4-4.6v-26.5h3.2V221.9z"/>
		<path class="st0" d="M342.7,226.7c-1-1.1-1.5-2.7-1.5-4.9c0-2.6,0.6-4.6,1.8-5.9c1.2-1.3,3-1.9,5.4-1.9h4.2l0.3,2.3h-4.4
			c-1.4,0-2.5,0.5-3.2,1.4c-0.7,0.9-1.1,2.3-1.1,4.1c0,1.4,0.3,2.4,1,3.1c0.6,0.7,1.6,1,2.9,1c1.4,0,2.5-0.4,3.2-1.1
			c0.7-0.8,1.1-1.9,1.1-3.4l0.5,1.9c0,1.1-0.2,2-0.6,2.8c-0.4,0.7-1,1.3-1.8,1.7c-0.8,0.4-1.8,0.6-3,0.6
			C345.2,228.3,343.7,227.8,342.7,226.7z M352.3,210.9c0-1.3-0.3-2.2-1-2.9c-0.7-0.7-1.7-1-3-1c-1.1,0-2,0.3-2.6,1
			c-0.6,0.7-0.9,1.7-0.9,2.9h-3.1c0-2.1,0.6-3.7,1.8-4.9c1.2-1.2,2.9-1.7,5-1.7c1.5,0,2.7,0.3,3.7,0.8c1,0.5,1.8,1.3,2.4,2.3
			c0.5,1,0.8,2.2,0.8,3.6V228h-3V210.9z"/>
		<path class="st0" d="M400.5,227.5c-1-0.5-1.8-1.3-2.3-2.3c-0.5-1-0.8-2.3-0.8-3.9h3c0,1.4,0.3,2.5,1,3.2c0.7,0.7,1.7,1.1,3.1,1.1
			c1.4,0,2.4-0.3,3.1-1s1-1.7,1-3c0-0.7-0.1-1.2-0.4-1.7c-0.3-0.4-0.7-0.8-1.1-1.1c-0.5-0.3-1.1-0.5-1.8-0.8c-0.1,0-0.2-0.1-0.3-0.1
			c-0.1,0-0.2-0.1-0.3-0.1c-0.1,0-0.2-0.1-0.2-0.1c-0.1,0-0.2,0-0.2-0.1c-1.3-0.4-2.4-0.8-3.3-1.2c-0.8-0.4-1.6-1-2.1-1.9
			c-0.6-0.9-0.9-2-0.9-3.5c0-1.5,0.2-2.7,0.7-3.7c0.5-1,1.2-1.7,2.2-2.2c1-0.5,2.2-0.7,3.7-0.7c1.5,0,2.7,0.2,3.7,0.7
			c1,0.5,1.7,1.2,2.2,2.2c0.5,1,0.7,2.2,0.7,3.6h-3c0-1.3-0.3-2.2-0.9-2.8c-0.6-0.6-1.5-0.9-2.7-0.9c-1.2,0-2.1,0.3-2.7,1
			c-0.6,0.6-0.9,1.6-0.9,2.9c0,0.8,0.2,1.4,0.6,1.9c0.4,0.5,0.8,0.9,1.4,1.2c0.6,0.3,1.3,0.6,2.2,0.8c0,0,0.1,0,0.1,0
			c0.1,0,0.1,0,0.1,0c0,0,0.1,0,0.1,0c0,0,0.1,0,0.1,0c1.3,0.4,2.4,0.7,3.2,1.1c0.8,0.4,1.5,1,2.1,1.9c0.6,0.9,0.9,2.1,0.9,3.5
			c0,1.5-0.3,2.8-0.8,3.8c-0.5,1-1.3,1.8-2.3,2.3c-1,0.5-2.4,0.8-3.9,0.8S401.6,228.1,400.5,227.5z"/>
		<path class="st0" d="M453.4,195.3h3.2V228h-3.2V195.3z M464.4,211.5c0-1.4-0.3-2.5-1-3.2c-0.6-0.7-1.6-1.1-2.9-1.1
			c-1.3,0-2.3,0.4-2.9,1.2c-0.6,0.8-1,2-1,3.5l-0.5-3.8c0.5-1.3,1.3-2.3,2.2-2.9c0.9-0.6,2-1,3.4-1c2,0,3.5,0.6,4.5,1.8
			c1,1.2,1.5,3,1.5,5.4V228h-3.2V211.5z"/>
		<path class="st0" d="M510.9,195.3h3.2V228h-3.2V195.3z M515.7,227.3c-1-0.7-1.6-1.7-1.9-2.9l0.3-3.5c0,1,0.1,1.9,0.4,2.6
			c0.3,0.7,0.7,1.2,1.3,1.6c0.6,0.4,1.3,0.6,2,0.6c1.2,0,2.2-0.4,2.9-1.3c0.7-0.8,1-2,1-3.6v-8.9c0-1.5-0.3-2.7-1-3.5
			c-0.7-0.8-1.6-1.2-2.9-1.2c-0.8,0-1.5,0.2-2,0.5c-0.6,0.4-1,0.9-1.3,1.6c-0.3,0.7-0.4,1.5-0.4,2.5l-0.5-3.1
			c0.5-1.3,1.2-2.4,2.3-3.1c1-0.8,2.2-1.1,3.4-1.1c1.2,0,2.2,0.3,3,0.9c0.8,0.6,1.5,1.4,1.9,2.5c0.4,1.1,0.7,2.5,0.7,4.1v9
			c0,1.6-0.2,3-0.7,4.1c-0.5,1.1-1.1,2-2,2.6c-0.9,0.6-1.9,0.9-3.1,0.9C517.8,228.3,516.7,228,515.7,227.3z"/>
		<path class="st0" d="M568.8,226.7c-1-1.1-1.5-2.7-1.5-4.9c0-2.6,0.6-4.6,1.8-5.9c1.2-1.3,3-1.9,5.4-1.9h4.2l0.3,2.3h-4.4
			c-1.4,0-2.5,0.5-3.2,1.4c-0.7,0.9-1.1,2.3-1.1,4.1c0,1.4,0.3,2.4,1,3.1c0.6,0.7,1.6,1,2.9,1c1.4,0,2.5-0.4,3.2-1.1
			c0.7-0.8,1.1-1.9,1.1-3.4l0.5,1.9c0,1.1-0.2,2-0.6,2.8c-0.4,0.7-1,1.3-1.8,1.7c-0.8,0.4-1.8,0.6-3,0.6
			C571.4,228.3,569.9,227.8,568.8,226.7z M578.5,210.9c0-1.3-0.3-2.2-1-2.9c-0.7-0.7-1.7-1-3-1c-1.1,0-2,0.3-2.6,1
			c-0.6,0.7-0.9,1.7-0.9,2.9h-3.1c0-2.1,0.6-3.7,1.8-4.9c1.2-1.2,2.9-1.7,5-1.7c1.5,0,2.7,0.3,3.7,0.8c1,0.5,1.8,1.3,2.4,2.3
			c0.5,1,0.8,2.2,0.8,3.6V228h-3V210.9z"/>
		<path class="st0" d="M627.5,227.5c-1-0.5-1.8-1.3-2.4-2.4c-0.6-1-0.8-2.3-0.8-3.8v-9.7c0-1.5,0.3-2.9,0.8-4
			c0.6-1.1,1.4-1.9,2.4-2.5c1.1-0.6,2.3-0.9,3.8-0.9c1.5,0,2.8,0.3,3.8,0.9c1.1,0.6,1.9,1.4,2.4,2.5c0.6,1.1,0.8,2.4,0.8,4v0.2h-3.1
			v-0.2c0-1.4-0.3-2.4-1-3.2c-0.7-0.8-1.7-1.1-2.9-1.1c-1.2,0-2.2,0.4-2.9,1.1c-0.7,0.7-1,1.8-1,3.2v9.7c0,1.3,0.3,2.3,1,2.9
			c0.7,0.7,1.6,1,2.9,1c1.3,0,2.2-0.4,2.9-1.1c0.7-0.7,1-1.7,1-3v-0.2h3.1v0.2c0,1.5-0.3,2.8-0.8,3.8c-0.6,1.1-1.4,1.9-2.4,2.4
			c-1.1,0.6-2.4,0.8-3.9,0.8C629.8,228.3,628.5,228,627.5,227.5z"/>
		<path class="st0" d="M680.3,195.3h3.2V228h-3.2V195.3z M682.3,220.7l10.2-16h3.6l-13.6,20.1L682.3,220.7z M687.5,215.7l1.8-3.1
			L697,228h-3.6L687.5,215.7z"/>
	</g>
</g>
<path class="st0" d="M111.9,200.3c0-3.9-3.1-7-6.9-7h-3.4v13.9h3.4C108.8,207.2,111.9,204.1,111.9,200.3 M127.5,228h-12.6l-10-13.9
	h-3.4V228H90.4v-41.6h15.9c9.2,0,16.7,6.2,16.7,13.9c0,4.7-2.9,8.9-7.2,11.4L127.5,228"/>
<path class="st0" d="M140,202.8c-2.9,0-5.4,4-5.4,8.9s2.5,8.9,5.4,8.9c3,0,5.5-4,5.5-8.9C145.5,206.8,143.1,202.8,140,202.8
	 M157.1,211.7c0,9.4-7.7,17-17.1,17c-9.4,0-17-7.6-17-17c0-9.4,7.6-17,17-17C149.5,194.7,157.1,202.3,157.1,211.7 M183.2,195.4
	l-12.8,12.8v-12.8h-11.1V228h11.1v-13.2l13.4,13.2h14l-17-17l14.1-14.1v19.4c0,6.4,3.9,12.4,13.6,12.4c4.6,0,8.9-2.6,10.9-5l5,4.3
	h2.4v-32.6h-11.1v21.1c-1.3,2.2-3,3.6-5.7,3.6c-2.7,0-4-1.6-4-6.8v-17.9H183.2L183.2,195.4z"/>
<text transform="matrix(1 0 0 1 70.4102 421.9375)" class="st0 st1 st2">KIDS</text>
</svg>
