<?xml version="1.0" encoding="utf-8"?>
<!-- Generator: Adobe Illustrator 24.3.0, SVG Export Plug-In . SVG Version: 6.00 Build 0)  -->
<svg version="1.1" id="Layer_1" xmlns="http://www.w3.org/2000/svg" xmlns:xlink="http://www.w3.org/1999/xlink" x="0px" y="0px"
	 viewBox="0 0 2500 1221.5" style="enable-background:new 0 0 2500 1221.5;" xml:space="preserve">
<style type="text/css">
	.st0{fill:#6C3C97;}
</style>
<path class="st0" d="M394,255.2c0-71-57.1-128.2-127-128.2h-63v255.2h63C336.8,382.2,394,325,394,255.2 M680.4,764H449.2
	L265.7,509.3H204v254.1H0.3V0h291.8c168.2,0,305.5,114.4,305.5,255.2c0,85.8-52.6,162.5-132.8,209.4L680.4,764"/>
<path class="st0" d="M910.1,301c-53.8,0-99.6,73.1-99.6,163.6s45.8,163.7,99.6,163.7c55,0,100.7-73.2,100.7-163.7
	C1010.8,374.1,965.2,301,910.1,301 M1223.7,464.6c0,172.9-140.6,311.4-313.5,311.4c-172.9,0-312.5-138.5-312.5-311.4
	c0-172.8,139.6-311.3,312.5-311.3C1083,153.3,1223.7,291.8,1223.7,464.6 M1701.7,165.9L1467,400.6V165.2h-203.7v598.3H1467V520.7
	l245,242.7h256.3l-311.3-311.4l257.9-257.8v355c0,117.9,70.9,226.7,249.4,226.7c84.7,0,162.5-48.1,200.3-91.6l91.6,79h43.5V165.9
	H2296v386.8c-22.9,40-54.9,65.2-104.3,65.2c-50.1,0-73.1-29.7-73.1-124.7V165.9H1701.7L1701.7,165.9z"/>
<g>
	<path class="st0" d="M1.2,812.9h17.6v177.5H1.2V812.9z M13.4,812.9h64.1v16.4H13.4V812.9z M13.4,895.7h58V912h-58V895.7z"/>
	<path class="st0" d="M320.1,957.1c0,5.4,1.2,9.5,3.6,12.5c2.4,3,5.8,4.5,10.2,4.5h8.1v16.4h-9.8c-9.4,0-16.7-2.9-21.9-8.8
		c-5.2-5.9-7.8-14.1-7.8-24.8V812.9h17.6V957.1z"/>
	<path class="st0" d="M573.5,983.4c-5.5-5.9-8.3-14.8-8.3-26.7c0-14.2,3.2-24.9,9.7-31.9c6.5-7,16.3-10.6,29.4-10.6h22.6l1.7,12.7
		h-24.2c-7.7,0-13.5,2.5-17.3,7.4c-3.8,5-5.7,12.4-5.7,22.3c0,7.6,1.7,13.2,5.2,17c3.5,3.7,8.7,5.6,15.7,5.6
		c7.8,0,13.7-2.1,17.6-6.2c3.9-4.1,5.9-10.3,5.9-18.6l2.6,10.5c-0.1,6-1.2,11.1-3.5,15.1c-2.2,4.1-5.6,7.1-9.9,9.1
		c-4.4,2-9.9,3-16.5,3C587.4,992.2,579.1,989.3,573.5,983.4z M625.8,897.6c0-6.8-1.9-12.1-5.7-15.9c-3.8-3.7-9.1-5.6-16.1-5.6
		c-6.1,0-10.8,1.9-14.2,5.6c-3.4,3.7-5.1,9-5.1,15.9h-17c0-11.5,3.2-20.4,9.6-26.7c6.4-6.3,15.5-9.5,27.2-9.5
		c7.9,0,14.6,1.4,20.3,4.3c5.6,2.8,9.9,7,12.8,12.3s4.4,11.9,4.4,19.5v92.8h-16.4V897.6z"/>
	<path class="st0" d="M887.9,988c-5.7-2.8-9.9-7-12.8-12.6c-2.8-5.6-4.3-12.7-4.3-21.1h16.2c0,7.7,1.8,13.4,5.5,17.2
		c3.7,3.8,9.2,5.7,16.6,5.7c7.4,0,12.9-1.8,16.6-5.5s5.5-9.2,5.5-16.5c0-3.7-0.8-6.7-2.3-9.2c-1.5-2.4-3.6-4.4-6.2-5.9
		c-2.6-1.5-5.9-2.9-9.8-4.2c-0.6-0.2-1.2-0.3-1.8-0.5c-0.6-0.2-1.2-0.4-1.9-0.5c-0.4-0.2-0.8-0.3-1.3-0.4c-0.4-0.1-0.9-0.2-1.3-0.3
		c-7.3-2.2-13.3-4.4-17.8-6.6c-4.6-2.2-8.4-5.7-11.7-10.4c-3.2-4.7-4.8-11.1-4.8-19.2c0-8.1,1.3-14.9,4-20.3
		c2.6-5.4,6.6-9.5,11.9-12.1c5.3-2.7,11.9-4,19.9-4c8,0,14.6,1.3,19.9,3.9c5.3,2.6,9.3,6.5,11.9,11.8c2.6,5.3,4,11.8,4,19.7h-16.2
		c0-6.8-1.6-11.9-4.9-15.3c-3.3-3.4-8.1-5.1-14.6-5.1c-6.5,0-11.4,1.8-14.6,5.2c-3.3,3.5-4.9,8.7-4.9,15.7c0,4.3,1,7.8,3,10.6
		s4.6,4.9,7.8,6.4c3.2,1.5,7.2,3,12.1,4.4c0.2,0.1,0.5,0.1,0.8,0.2c0.3,0,0.5,0.1,0.8,0.2c0.2,0.1,0.3,0.1,0.5,0.2
		c0.2,0,0.4,0.1,0.5,0.1c7.1,2,12.9,4,17.3,6.2c4.5,2.2,8.3,5.6,11.4,10.3c3.1,4.7,4.6,11.2,4.6,19.3c0,8.3-1.4,15.2-4.2,20.6
		c-2.8,5.5-7.1,9.5-12.8,12.3c-5.7,2.7-12.8,4.1-21.4,4.1S893.6,990.8,887.9,988z"/>
	<path class="st0" d="M1175.1,812.9h17.6v177.5h-17.6V812.9z M1234.9,900.9c0-7.7-1.8-13.5-5.2-17.3c-3.5-3.8-8.8-5.7-15.9-5.7
		s-12.4,2.1-15.9,6.3c-3.5,4.2-5.2,10.6-5.2,19.2l-2.6-20.8c2.9-7.1,6.9-12.4,11.9-15.9c5-3.5,11.1-5.2,18.3-5.2
		c10.8,0,18.9,3.3,24.2,9.8c5.3,6.6,8,16.4,8,29.6v89.5h-17.6V900.9z"/>
	<path class="st0" d="M1487.3,812.9h17.6v177.5h-17.6V812.9z M1513.6,986.4c-5.3-3.9-8.7-9.2-10.4-15.9l1.7-19.2
		c0,5.5,0.8,10.1,2.4,13.9c1.6,3.8,3.9,6.8,7,8.8c3.1,2,6.8,3.1,11.1,3.1c6.7,0,11.9-2.3,15.6-6.9c3.7-4.6,5.6-11,5.6-19.3v-48.6
		c0-8.1-1.9-14.4-5.6-18.9c-3.7-4.5-8.9-6.7-15.6-6.7c-4.3,0-8,1-11.1,2.9c-3.1,2-5.4,4.8-7,8.6c-1.6,3.8-2.4,8.3-2.4,13.6
		l-2.6-17.1c2.5-7.2,6.6-12.9,12.3-17c5.7-4.1,11.8-6.2,18.5-6.2c6.4,0,11.9,1.6,16.5,4.8c4.6,3.2,8,7.8,10.4,13.9
		c2.4,6.1,3.5,13.4,3.5,22v48.7c0,8.7-1.2,16.2-3.7,22.4c-2.5,6.2-6.1,10.9-10.8,14.2c-4.7,3.2-10.4,4.8-17.1,4.8
		C1525,992.2,1518.9,990.3,1513.6,986.4z"/>
	<path class="st0" d="M1802.4,983.4c-5.5-5.9-8.3-14.8-8.3-26.7c0-14.2,3.2-24.9,9.7-31.9c6.5-7,16.3-10.6,29.4-10.6h22.6l1.7,12.7
		h-24.2c-7.7,0-13.5,2.5-17.3,7.4c-3.8,5-5.7,12.4-5.7,22.3c0,7.6,1.7,13.2,5.2,17c3.5,3.7,8.7,5.6,15.7,5.6
		c7.8,0,13.7-2.1,17.6-6.2c3.9-4.1,5.9-10.3,5.9-18.6l2.6,10.5c-0.1,6-1.2,11.1-3.5,15.1c-2.2,4.1-5.6,7.1-9.9,9.1
		c-4.4,2-9.9,3-16.5,3C1816.2,992.2,1807.9,989.3,1802.4,983.4z M1854.6,897.6c0-6.8-1.9-12.1-5.7-15.9c-3.8-3.7-9.1-5.6-16.1-5.6
		c-6.1,0-10.8,1.9-14.2,5.6c-3.4,3.7-5.1,9-5.1,15.9h-17c0-11.5,3.2-20.4,9.6-26.7c6.4-6.3,15.5-9.5,27.2-9.5
		c7.9,0,14.6,1.4,20.3,4.3c5.6,2.8,9.9,7,12.8,12.3s4.4,11.9,4.4,19.5v92.8h-16.4V897.6z"/>
	<path class="st0" d="M2121,987.8c-5.7-3-10.1-7.3-13.1-12.9c-3-5.7-4.5-12.5-4.5-20.6v-53c0-8.4,1.5-15.5,4.5-21.5
		c3-5.9,7.4-10.5,13.1-13.6c5.7-3.1,12.6-4.7,20.7-4.7c8.1,0,15.1,1.6,20.9,4.7c5.8,3.1,10.2,7.7,13.2,13.7c3,6,4.5,13.2,4.5,21.7v1
		h-16.7v-1c0-7.5-1.9-13.3-5.6-17.5c-3.7-4.2-9-6.2-15.9-6.2c-6.7,0-11.9,2-15.6,6.1c-3.7,4.1-5.6,9.8-5.6,17.3v53
		c0,6.9,1.8,12.2,5.5,16c3.7,3.7,8.9,5.6,15.6,5.6c6.8,0,12.1-1.9,15.9-5.8c3.7-3.9,5.6-9.3,5.6-16.3v-1h17v1
		c0,8.1-1.5,15.1-4.6,20.8c-3.1,5.7-7.5,10.1-13.3,13.1c-5.8,3-12.8,4.5-20.9,4.5C2133.6,992.2,2126.7,990.7,2121,987.8z"/>
	<path class="st0" d="M2408.1,812.9h17.6v177.5h-17.6V812.9z M2418.8,950.8l55.4-87.2h19.5l-74.1,109.4L2418.8,950.8z M2447,923.4
		l9.9-16.6l41.9,83.6H2479L2447,923.4z"/>
</g>
</svg>
